<?xml version="1.0" ?><!DOCTYPE svg  PUBLIC '-//W3C//DTD SVG 1.1//EN'  'http://www.w3.org/Graphics/SVG/1.1/DTD/svg11.dtd'><svg enable-background="new 0 0 24 24" height="24px" id="Layer_1" version="1.1" viewBox="0 0 24 24" width="24px" xml:space="preserve" xmlns="http://www.w3.org/2000/svg" xmlns:xlink="http://www.w3.org/1999/xlink"><g><path d="M10,12.6V3c0-2.2-1.8-4-4-4S2,0.8,2,3v9.6c-1.2,1.1-2,2.7-2,4.4c0,3.3,2.7,6,6,6s6-2.7,6-6C12,15.2,11.2,13.7,10,12.6z    M6,21c-2.2,0-4-1.8-4-4c0-1.5,0.8-2.8,2-3.4V11h2v-1H4V8h2V7H4V5h2V4H4V3c0-1.1,0.9-2,2-2s2,0.9,2,2v10.6c1.2,0.7,2,2,2,3.4   C10,19.2,8.2,21,6,21z"/><path d="M6,14v1c1.1,0,2,0.9,2,2h1C9,15.3,7.7,14,6,14z"/><path d="M19,3l-5,5h3v7h4V8h3L19,3z M20,7v7h-2V7h-1.6L19,4.4L21.6,7H20z"/></g></svg>